<svg width="46" height="47" viewBox="0 0 46 47" fill="none" xmlns="http://www.w3.org/2000/svg">
  <rect y="0.670166" width="46" height="46" rx="5.39062" fill="url(#paint0_linear_223_4)"/>
  <path d="M19.2563 24.6415L19.2434 24.6573L19.2436 24.6573L12.3457 33.1318L12.3456 33.1317L12.3456 33.1318L12.3455 33.1316C10.1051 30.6136 8.74411 27.296 8.74411 23.6605C8.74411 15.7882 15.1258 9.40656 22.998 9.40656C23.9204 9.40656 24.8223 9.49416 25.6959 9.66151C25.7381 9.65094 25.7795 9.64055 25.8203 9.63036L25.7693 9.67578L25.7734 9.67659L16.7482 17.7139L37.8184 3.52368L29.4513 10.9476L29.4546 10.9493L11.8118 26.6034L19.2563 24.6415Z" fill="white"/>
  <path d="M26.7099 22.6947L33.6735 14.2251L33.6736 14.2253L33.6738 14.2251C35.9003 16.7398 37.2519 20.0471 37.2519 23.67C37.2519 31.5422 30.8702 37.9239 22.998 37.9239C22.1488 37.9239 21.3169 37.8496 20.5085 37.7072H20.1382L20.2026 37.6499C20.1978 37.6489 20.193 37.648 20.1882 37.647L29.2228 29.5963L8.1814 43.8168L34.2336 20.7334L26.7099 22.6947Z" fill="white"/>
  <defs>
    <linearGradient id="paint0_linear_223_4" x1="23" y1="0.670166" x2="23" y2="46.6702" gradientUnits="userSpaceOnUse">
      <stop stop-color="#DC2C21"/>
      <stop offset="1" stop-color="#BA140F"/>
    </linearGradient>
  </defs>
</svg>
